<?xml version="1.0" standalone="no"?><!-- Generator: Gravit.io --><svg xmlns="http://www.w3.org/2000/svg" xmlns:xlink="http://www.w3.org/1999/xlink" style="isolation:isolate" viewBox="0 0 1236 270" width="1236" height="270"><defs><clipPath id="_clipPath_mmqVdwwxyErA7KGmEP6pdBaxSeUVcKwA"><rect width="1236" height="270"/></clipPath></defs><g clip-path="url(#_clipPath_mmqVdwwxyErA7KGmEP6pdBaxSeUVcKwA)"><clipPath id="_clipPath_NfLmUV1seU86CM4gJ04yrcwtT4f3dMni"><path d=" M 0 0 L 1236 0 L 1236 270 L 0 270 L 0 0 Z " fill="rgb(255,255,255)"/></clipPath><g clip-path="url(#_clipPath_NfLmUV1seU86CM4gJ04yrcwtT4f3dMni)"><path d=" M 57.764 132.757 C 51.242 139.356 47.977 147.334 47.977 156.713 C 47.977 166.023 51.242 173.98 57.764 180.57 C 64.355 187.162 72.34 190.459 81.725 190.459 C 91.03 190.459 98.985 187.162 105.577 180.57 C 112.165 173.98 115.462 166.023 115.462 156.713 C 115.462 147.334 112.165 139.356 105.577 132.757 C 98.985 126.167 91.03 122.876 81.725 122.876 C 72.34 122.876 64.355 126.167 57.764 132.757 Z  M 128.104 55.898 C 131.431 55.898 134.324 57.086 136.772 59.463 C 139.217 61.908 140.44 64.833 140.44 68.234 L 140.44 156.713 C 140.37 172.89 134.592 186.65 123.11 198.003 C 111.624 209.42 97.827 215.127 81.725 215.127 C 65.547 215.127 51.715 209.392 40.232 197.897 C 28.744 186.415 23.004 172.584 23.004 156.41 C 23.004 140.235 28.744 126.405 40.232 114.922 C 51.715 103.436 65.547 97.692 81.725 97.692 C 96.469 97.692 107.717 101.093 115.462 107.886 L 115.462 68.234 C 115.462 64.833 116.685 61.908 119.135 59.463 C 121.58 57.086 124.465 55.898 127.798 55.898 L 128.104 55.898 Z " fill="rgb(11,199,114)"/><path d=" M 216.491 122.876 C 207.11 122.876 199.125 126.167 192.531 132.757 C 186.008 139.355 182.744 147.334 182.744 156.713 C 182.744 166.022 186.008 173.98 192.531 180.569 C 199.125 187.162 207.11 190.459 216.491 190.459 C 225.799 190.459 233.754 187.162 240.345 180.569 C 246.929 173.98 250.231 166.022 250.231 156.713 C 250.231 147.334 246.929 139.355 240.345 132.757 C 233.754 126.167 225.799 122.876 216.491 122.876 Z  M 216.491 97.691 C 232.663 97.691 246.497 103.436 257.98 114.922 C 269.464 126.405 275.211 140.234 275.211 156.41 C 275.211 172.584 269.464 186.415 257.98 197.897 C 246.497 209.392 232.663 215.127 216.491 215.127 C 200.317 215.127 186.482 209.392 174.998 197.897 C 163.512 186.415 157.773 172.584 157.773 156.41 C 157.773 140.234 163.512 126.405 174.998 114.922 C 186.482 103.436 200.317 97.691 216.491 97.691 Z " fill="rgb(11,199,114)"/><path d=" M 309.259 55.897 C 312.587 55.897 315.479 57.085 317.92 59.463 C 320.366 61.909 321.595 64.834 321.595 68.233 L 321.595 202.798 C 321.595 206.258 320.366 209.146 317.92 211.46 C 315.479 213.902 312.587 215.126 309.259 215.126 L 308.95 215.126 C 305.62 215.126 302.733 213.902 300.287 211.46 C 297.84 209.146 296.618 206.258 296.618 202.798 L 296.618 68.233 C 296.618 64.834 297.84 61.909 300.287 59.463 C 302.733 57.085 305.62 55.897 308.95 55.897 L 309.259 55.897 Z " fill="rgb(11,199,114)"/><path d=" M 362.777 55.897 C 366.104 55.897 368.994 57.085 371.439 59.463 C 373.885 61.909 375.111 64.834 375.111 68.233 L 375.111 202.798 C 375.111 206.258 373.885 209.146 371.439 211.46 C 368.994 213.902 366.104 215.126 362.777 215.126 L 362.469 215.126 C 359.137 215.126 356.249 213.902 353.802 211.46 C 351.355 209.146 350.137 206.258 350.137 202.798 L 350.137 68.233 C 350.137 64.834 351.355 61.909 353.802 59.463 C 356.249 57.085 359.137 55.897 362.469 55.897 L 362.777 55.897 Z " fill="rgb(11,199,114)"/><path d=" M 434.338 132.552 C 427.817 139.148 424.555 147.101 424.555 156.41 C 424.555 165.784 427.817 173.777 434.338 180.366 C 440.93 186.885 448.92 190.154 458.299 190.154 C 467.673 190.154 475.628 186.885 482.154 180.366 C 488.745 173.777 492.035 165.784 492.035 156.41 C 492.035 147.101 488.745 139.148 482.154 132.552 C 475.557 125.962 467.606 122.669 458.299 122.669 C 448.92 122.669 440.93 125.962 434.338 132.552 Z  M 499.789 114.922 C 511.281 126.406 517.017 140.235 517.017 156.41 L 517.017 202.799 C 517.017 206.259 515.795 209.147 513.346 211.46 C 510.897 213.903 508.013 215.127 504.681 215.127 L 504.371 215.127 C 501.046 215.127 498.154 213.903 495.714 211.46 C 493.265 209.147 492.035 206.259 492.035 202.799 C 484.292 211.016 473.045 215.127 458.299 215.127 C 442.124 215.127 428.291 209.392 416.81 197.897 C 405.321 186.415 399.579 172.584 399.579 156.41 C 399.579 140.235 405.321 126.406 416.81 114.922 C 428.291 103.436 442.124 97.692 458.299 97.692 C 474.477 97.692 488.302 103.436 499.789 114.922 Z " fill="rgb(11,199,114)"/><path d=" M 588.172 97.691 C 591.566 97.691 594.491 98.914 596.934 101.356 C 599.312 103.807 600.501 106.725 600.501 110.125 L 600.501 110.333 C 600.501 113.726 599.312 116.62 596.934 119 C 594.491 121.444 591.566 122.669 588.172 122.669 L 582.356 122.669 C 576.783 122.669 572.063 124.605 568.19 128.477 C 564.387 132.354 562.443 137.073 562.376 142.644 L 562.376 202.798 C 562.376 206.258 561.154 209.146 558.705 211.46 C 556.263 213.902 553.372 215.127 550.047 215.127 L 549.734 215.127 C 546.412 215.127 543.514 213.902 541.072 211.46 C 538.623 209.146 537.401 206.258 537.401 202.798 L 537.401 142.644 C 537.533 130.208 541.923 119.611 550.557 110.84 C 559.324 102.075 569.923 97.691 582.356 97.691 L 588.172 97.691 Z " fill="rgb(11,199,114)"/><path d=" M 643.315 122.669 C 640.328 122.669 637.815 123.688 635.781 125.728 C 633.734 127.831 632.719 130.347 632.719 133.27 C 632.719 137.342 634.688 140.404 638.636 142.443 C 639.994 143.193 645.669 144.892 655.659 147.54 C 663.74 149.849 669.76 152.875 673.701 156.609 C 679.339 161.985 682.156 169.625 682.156 179.551 C 682.156 189.341 678.692 197.729 671.756 204.732 C 664.76 211.663 656.373 215.127 646.589 215.127 L 619.974 215.127 C 616.646 215.127 613.755 213.902 611.313 211.46 C 608.867 209.147 607.646 206.259 607.646 202.799 L 607.646 202.596 C 607.646 199.192 608.867 196.27 611.313 193.82 C 613.755 191.378 616.646 190.153 619.974 190.153 L 647.604 190.153 C 650.591 190.153 653.109 189.135 655.153 187.095 C 657.185 185.055 658.208 182.545 658.208 179.551 C 658.208 175.813 656.266 172.997 652.393 171.092 C 651.375 170.615 645.669 168.913 635.269 165.994 C 627.18 163.612 621.161 160.486 617.227 156.609 C 611.581 151.109 608.763 143.326 608.763 133.27 C 608.763 123.48 612.229 115.123 619.164 108.191 C 626.159 101.196 634.554 97.691 644.339 97.691 L 663.099 97.691 C 666.502 97.691 669.424 98.914 671.867 101.357 C 674.31 103.808 675.534 106.726 675.534 110.125 L 675.534 110.333 C 675.534 113.801 674.31 116.689 671.867 119 C 669.424 121.444 666.502 122.669 663.099 122.669 L 643.315 122.669 Z " fill="rgb(11,199,114)"/><path d=" M 781.045 180.057 C 787.639 173.471 790.928 165.521 790.928 156.203 C 790.928 146.828 787.639 138.839 781.045 132.249 C 774.52 125.728 766.569 122.465 757.186 122.465 C 747.812 122.465 739.826 125.728 733.23 132.249 C 726.703 138.839 723.446 146.828 723.446 156.203 C 723.446 165.521 726.703 173.471 733.23 180.057 C 739.826 186.65 747.812 189.951 757.186 189.951 C 766.502 189.951 774.452 186.65 781.045 180.057 Z  M 710.804 257.03 C 707.476 257.03 704.585 255.802 702.135 253.352 C 699.696 250.913 698.476 248.016 698.476 244.691 L 698.476 156.203 C 698.536 139.964 704.311 126.167 715.795 114.818 C 727.216 103.402 741.019 97.692 757.186 97.692 C 773.362 97.692 787.197 103.436 798.679 114.922 C 810.163 126.406 815.913 140.235 815.913 156.411 C 815.913 172.584 810.163 186.415 798.679 197.897 C 787.197 209.392 773.362 215.127 757.186 215.127 C 742.375 215.127 731.125 211.728 723.446 204.935 L 723.446 244.691 C 723.446 248.016 722.218 250.913 719.775 253.352 C 717.33 255.802 714.44 257.03 711.11 257.03 L 710.804 257.03 Z " fill="rgb(11,199,114)"/><path d=" M 884.007 97.691 C 887.401 97.691 890.319 98.914 892.776 101.356 C 895.147 103.807 896.34 106.725 896.34 110.125 L 896.34 110.333 C 896.34 113.726 895.147 116.62 892.776 119 C 890.319 121.444 887.401 122.669 884.007 122.669 L 878.197 122.669 C 872.618 122.669 867.898 124.605 864.025 128.477 C 860.223 132.354 858.285 137.073 858.218 142.644 L 858.218 202.798 C 858.218 206.258 856.989 209.146 854.54 211.46 C 852.098 213.902 849.207 215.127 845.882 215.127 L 845.572 215.127 C 842.24 215.127 839.357 213.902 836.907 211.46 C 834.457 209.146 833.24 206.258 833.24 202.798 L 833.24 142.644 C 833.375 130.208 837.758 119.611 846.384 110.84 C 855.156 102.075 865.758 97.691 878.197 97.691 L 884.007 97.691 Z " fill="rgb(11,199,114)"/><path d=" M 1064.238 165.891 C 1064.238 172.617 1066.584 178.362 1071.276 183.119 C 1076.029 187.807 1081.81 190.154 1088.603 190.154 C 1095.332 190.154 1101.074 187.807 1105.834 183.119 C 1110.519 178.362 1112.865 172.617 1112.865 165.891 L 1112.865 110.125 C 1112.865 106.726 1114.087 103.808 1116.54 101.357 C 1118.982 98.914 1121.905 97.692 1125.301 97.692 L 1125.508 97.692 C 1128.971 97.692 1131.862 98.914 1134.173 101.357 C 1136.615 103.808 1137.843 106.726 1137.843 110.125 L 1137.843 165.891 C 1137.843 179.412 1133.015 191.004 1123.364 200.656 C 1113.717 210.303 1102.125 215.127 1088.603 215.127 C 1075.01 215.127 1063.394 210.303 1053.735 200.656 C 1044.088 191.004 1039.26 179.412 1039.26 165.891 L 1039.26 110.125 C 1039.26 106.726 1040.488 103.808 1042.934 101.357 C 1045.384 98.914 1048.267 97.692 1051.595 97.692 L 1051.902 97.692 C 1055.238 97.692 1058.122 98.914 1060.571 101.357 C 1063.009 103.808 1064.238 106.726 1064.238 110.125 L 1064.238 165.891 Z " fill="rgb(11,199,114)"/><path d=" M 1170.874 55.897 C 1174.195 55.897 1177.087 57.085 1179.532 59.463 C 1181.981 61.909 1183.203 64.834 1183.203 68.233 L 1183.203 97.691 L 1198.497 97.691 C 1201.826 97.691 1204.717 98.914 1207.166 101.356 C 1209.604 103.808 1210.833 106.726 1210.833 110.126 L 1210.833 110.334 C 1210.833 113.8 1209.604 116.688 1207.166 119.001 C 1204.717 121.445 1201.826 122.669 1198.497 122.669 L 1183.203 122.669 L 1183.203 183.118 C 1183.203 185.09 1183.883 186.76 1185.243 188.117 C 1186.6 189.477 1188.305 190.154 1190.334 190.154 L 1198.497 190.154 C 1201.826 190.154 1204.717 191.378 1207.166 193.82 C 1209.604 196.27 1210.833 199.193 1210.833 202.596 L 1210.833 202.798 C 1210.833 206.258 1209.604 209.146 1207.166 211.46 C 1204.717 213.902 1201.826 215.126 1198.497 215.126 L 1190.334 215.126 C 1181.512 215.126 1173.936 212.001 1167.606 205.751 C 1161.354 199.43 1158.226 191.883 1158.226 183.118 L 1158.226 68.233 C 1158.226 64.834 1159.446 61.909 1161.899 59.463 C 1164.342 57.085 1167.232 55.897 1170.561 55.897 L 1170.874 55.897 Z " fill="rgb(11,199,114)"/><path d=" M 962.808 115.823 C 962.808 115.823 956.876 72.156 907.287 61.049 C 907.287 61.049 944.295 64.006 959.098 91.393 C 959.098 91.393 970.195 38.845 924.309 44.027 C 878.415 49.208 868.059 38.845 868.059 38.845 C 868.059 38.845 888.038 110.642 939.848 94.355 C 939.848 94.355 953.918 101.018 962.808 115.823 Z " fill="rgb(11,199,114)"/><path d=" M 970.824 93.055 C 970.824 93.055 1019.712 100.431 1026.163 47.402 C 1026.163 47.402 975.434 32.637 968.061 87.971 L 1009.558 59.385 L 970.824 93.055 Z " fill="rgb(11,199,114)"/><path d=" M 1004.709 114.922 C 994.274 104.486 981.893 98.854 967.599 97.893 C 973.238 106.081 972.96 116.017 971.294 123.818 C 977.2 125.213 982.48 128.164 987.076 132.757 C 993.662 139.356 996.955 147.334 996.955 156.713 C 996.955 166.023 993.662 173.98 987.076 180.569 C 980.48 187.162 972.522 190.459 963.217 190.459 C 953.839 190.459 945.854 187.162 939.26 180.569 C 932.734 173.98 929.474 166.023 929.474 156.713 C 929.474 147.334 932.734 139.356 939.26 132.757 C 945.854 126.167 953.839 122.876 963.217 122.876 L 963.224 122.876 C 964.359 112.594 956.954 103.719 951.574 98.761 C 940.304 100.906 930.346 106.296 921.723 114.922 C 910.238 126.405 904.503 140.234 904.503 156.41 C 904.503 172.584 910.238 186.415 921.723 197.897 C 933.212 209.392 947.046 215.127 963.217 215.127 C 979.39 215.127 993.218 209.392 1004.709 197.897 C 1016.19 186.415 1021.934 172.584 1021.934 156.41 C 1021.934 140.234 1016.19 126.405 1004.709 114.922 Z " fill="rgb(11,199,114)"/></g></g></svg>